<?xml version="1.0" encoding="UTF-8" standalone="no"?>
<!DOCTYPE svg PUBLIC "-//W3C//DTD SVG 1.1//EN" "http://www.w3.org/Graphics/SVG/1.1/DTD/svg11.dtd">
<svg width="100%" height="100%" viewBox="0 0 877 417" version="1.1" xmlns="http://www.w3.org/2000/svg" xmlns:xlink="http://www.w3.org/1999/xlink" xml:space="preserve" xmlns:serif="http://www.serif.com/" style="fill-rule:evenodd;clip-rule:evenodd;stroke-linejoin:round;stroke-miterlimit:2;">
    <g transform="matrix(1,0,0,1,-106.056,-331.851)">
        <g transform="matrix(1,0,0,1,192.623,-236.418)">
            <path d="M206.768,779.243C199.863,776.732 194.422,772.129 190.447,765.433C186.471,758.738 184.483,751.414 184.483,743.463C184.483,742.207 184.902,737.709 185.739,729.967C188.877,686.026 193.585,643.655 199.863,602.853C202.164,587.788 205.721,578.476 210.534,574.919C215.346,571.153 225.076,569.27 239.723,569.27L480.141,569.27C491.021,587.474 496.462,611.327 496.462,640.83C496.462,670.333 490.184,693.873 477.63,711.449C464.657,703.498 452.207,697.535 440.28,693.559C421.658,687.7 401.675,684.771 380.333,684.771L345.18,684.771L343.297,698.895L372.486,698.895C415.799,698.895 450.952,710.089 477.944,732.478C507.447,757.168 522.198,791.902 522.198,836.68C522.198,881.457 505.668,917.133 472.608,943.706C439.548,970.28 394.247,983.567 336.706,983.567C285.442,983.567 245.268,972.582 216.183,950.611C187.099,928.432 172.557,900.603 172.557,867.124C172.557,840.551 181.345,819.731 198.921,804.666C216.706,789.601 237.526,782.068 261.379,782.068C285.233,782.068 305.32,788.868 321.641,802.469C340.054,818.162 349.888,839.086 351.144,865.241C360.769,865.241 365.581,860.742 365.581,851.745C365.581,829.566 356.479,810.106 338.275,793.367C320.071,776.418 294.544,767.944 261.693,767.944C241.815,767.944 223.507,771.71 206.768,779.243Z" style="fill:white;fill-rule:nonzero;stroke:rgb(31,185,0);stroke-width:2px;"/>
        </g>
        <g transform="matrix(1,0,0,1,-484.128,112.421)">
            <path d="M748.8,456.379C748.8,463.419 747.072,469.883 743.616,475.771C740.16,481.531 735.552,486.139 729.792,489.595C724.032,493.051 717.568,494.779 710.4,494.779L593.664,494.779L593.664,475.579L710.4,475.579C715.776,475.579 720.32,473.723 724.032,470.011C727.744,466.171 729.6,461.627 729.6,456.379C729.6,451.131 727.744,446.651 724.032,442.939C720.32,439.099 715.776,437.179 710.4,437.179L632.064,437.179C625.024,437.179 618.56,435.451 612.672,431.995C606.912,428.539 602.304,423.931 598.848,418.171C595.392,412.283 593.664,405.819 593.664,398.779C593.664,391.739 595.392,385.339 598.848,379.579C602.304,373.691 606.912,369.019 612.672,365.563C618.56,362.107 625.024,360.379 632.064,360.379L739.2,360.379L739.2,379.579L632.064,379.579C626.816,379.579 622.272,381.499 618.432,385.339C614.72,389.051 612.864,393.531 612.864,398.779C612.864,404.027 614.72,408.571 618.432,412.411C622.272,416.123 626.816,417.979 632.064,417.979L710.4,417.979C717.568,417.979 724.032,419.707 729.792,423.163C735.552,426.619 740.16,431.291 743.616,437.179C747.072,442.939 748.8,449.339 748.8,456.379Z" style="fill:rgb(31,185,0);fill-rule:nonzero;"/>
            <path d="M752.28,456.379C752.28,464.059 750.387,471.109 746.617,477.532C746.611,477.542 746.606,477.552 746.6,477.561C742.845,483.819 737.84,488.825 731.582,492.579C725.289,496.355 718.231,498.259 710.4,498.259L593.664,498.259C591.741,498.259 590.183,496.701 590.183,494.779L590.183,475.579C590.183,473.657 591.741,472.098 593.664,472.098L710.4,472.098C714.793,472.098 718.513,470.597 721.56,467.56C724.594,464.407 726.119,460.683 726.119,456.379C726.119,452.092 724.603,448.432 721.571,445.4C721.557,445.386 721.543,445.372 721.529,445.358C718.499,442.223 714.788,440.659 710.4,440.659L632.064,440.659C624.383,440.659 617.333,438.767 610.91,434.996C610.9,434.991 610.891,434.985 610.881,434.979C604.624,431.225 599.618,426.219 595.863,419.961C595.857,419.952 595.852,419.942 595.846,419.932C592.076,413.509 590.183,406.459 590.183,398.779C590.183,391.087 592.081,384.097 595.854,377.803C599.612,371.407 604.622,366.334 610.881,362.578C610.891,362.573 610.9,362.567 610.91,362.561C617.333,358.791 624.383,356.898 632.064,356.898L739.2,356.898C741.122,356.898 742.68,358.457 742.68,360.379L742.68,379.579C742.68,381.501 741.122,383.059 739.2,383.059L632.064,383.059C627.76,383.059 624.041,384.651 620.893,387.8C617.86,390.832 616.344,394.492 616.344,398.779C616.344,403.078 617.866,406.799 620.908,409.963C624.055,412.981 627.771,414.498 632.064,414.498L710.4,414.498C718.231,414.498 725.289,416.403 731.582,420.178C737.841,423.934 742.852,429.007 746.609,435.403C750.382,441.697 752.28,448.687 752.28,456.379ZM748.8,456.379C748.8,449.339 747.072,442.939 743.616,437.179C740.16,431.291 735.552,426.619 729.792,423.163C724.032,419.707 717.568,417.979 710.4,417.979L632.064,417.979C626.816,417.979 622.272,416.123 618.432,412.411C614.72,408.571 612.864,404.027 612.864,398.779C612.864,393.531 614.72,389.051 618.432,385.339C622.272,381.499 626.816,379.579 632.064,379.579L739.2,379.579L739.2,360.379L632.064,360.379C625.024,360.379 618.56,362.107 612.672,365.563C606.912,369.019 602.304,373.691 598.848,379.579C595.392,385.339 593.664,391.739 593.664,398.779C593.664,405.819 595.392,412.283 598.848,418.171C602.304,423.931 606.912,428.539 612.672,431.995C618.56,435.451 625.024,437.179 632.064,437.179L710.4,437.179C715.776,437.179 720.32,439.099 724.032,442.939C727.744,446.651 729.6,451.131 729.6,456.379C729.6,461.627 727.744,466.171 724.032,470.011C720.32,473.723 715.776,475.579 710.4,475.579L593.664,475.579L593.664,494.779L710.4,494.779C717.568,494.779 724.032,493.051 729.792,489.595C735.552,486.139 740.16,481.531 743.616,475.771C747.072,469.883 748.8,463.419 748.8,456.379Z" style="fill:white;"/>
            <path d="M931.776,427.579C931.776,436.923 930.304,445.691 927.36,453.883C924.416,461.947 920.192,469.051 914.688,475.195C909.312,481.339 902.848,486.139 895.296,489.595C887.744,493.051 879.36,494.779 870.144,494.779L825.408,494.779C816.064,494.779 807.616,493.051 800.064,489.595C792.512,486.139 785.984,481.339 780.48,475.195C775.104,469.051 770.944,461.947 768,453.883C765.056,445.691 763.584,436.923 763.584,427.579C763.584,418.363 765.056,409.723 768,401.659C770.944,393.467 775.104,386.299 780.48,380.155C785.984,373.883 792.512,369.019 800.064,365.563C807.616,362.107 816.064,360.379 825.408,360.379L870.144,360.379C879.36,360.379 887.744,362.107 895.296,365.563C902.848,369.019 909.312,373.883 914.688,380.155C920.192,386.299 924.416,393.467 927.36,401.659C930.304,409.723 931.776,418.363 931.776,427.579ZM912.576,427.579C912.576,418.747 910.848,410.683 907.392,403.387C904.064,396.091 899.2,390.331 892.8,386.107C886.528,381.755 878.976,379.579 870.144,379.579L825.408,379.579C816.576,379.579 808.96,381.755 802.56,386.107C796.288,390.331 791.424,396.091 787.968,403.387C784.512,410.683 782.784,418.747 782.784,427.579C782.784,436.411 784.512,444.475 787.968,451.771C791.424,458.939 796.288,464.699 802.56,469.051C808.96,473.403 816.576,475.579 825.408,475.579L870.144,475.579C878.976,475.579 886.528,473.403 892.8,469.051C899.2,464.699 904.064,458.939 907.392,451.771C910.848,444.475 912.576,436.411 912.576,427.579Z" style="fill:rgb(31,185,0);fill-rule:nonzero;"/>
            <path d="M935.256,427.579C935.256,437.341 933.711,446.501 930.635,455.06C930.633,455.065 930.631,455.071 930.629,455.076C927.531,463.562 923.083,471.035 917.304,477.49C911.603,484.004 904.751,489.095 896.744,492.759C888.756,496.415 879.891,498.259 870.144,498.259L825.408,498.259C815.528,498.259 806.6,496.413 798.615,492.759C790.622,489.101 783.713,484.02 777.887,477.517C777.878,477.507 777.869,477.497 777.86,477.487C772.207,471.025 767.826,463.557 764.73,455.076C764.728,455.071 764.726,455.065 764.724,455.06C761.648,446.501 760.103,437.341 760.103,427.579C760.103,417.94 761.65,408.906 764.728,400.472C767.825,391.858 772.207,384.324 777.86,377.863L777.864,377.859C783.696,371.213 790.613,366.06 798.615,362.398C806.6,358.744 815.528,356.898 825.408,356.898L870.144,356.898C879.891,356.898 888.756,358.743 896.744,362.398C904.749,366.062 911.603,371.216 917.291,377.845C923.082,384.313 927.533,391.853 930.632,400.473C933.71,408.907 935.256,417.941 935.256,427.579ZM931.776,427.579C931.776,418.363 930.304,409.723 927.36,401.659C924.416,393.467 920.192,386.299 914.688,380.155C909.312,373.883 902.848,369.019 895.296,365.563C887.744,362.107 879.36,360.379 870.144,360.379L825.408,360.379C816.064,360.379 807.616,362.107 800.064,365.563C792.512,369.019 785.984,373.883 780.48,380.155C775.104,386.299 770.944,393.467 768,401.659C765.056,409.723 763.584,418.363 763.584,427.579C763.584,436.923 765.056,445.691 768,453.883C770.944,461.947 775.104,469.051 780.48,475.195C785.984,481.339 792.512,486.139 800.064,489.595C807.616,493.051 816.064,494.779 825.408,494.779L870.144,494.779C879.36,494.779 887.744,493.051 895.296,489.595C902.848,486.139 909.312,481.339 914.688,475.195C920.192,469.051 924.416,461.947 927.36,453.883C930.304,445.691 931.776,436.923 931.776,427.579ZM912.576,427.579C912.576,436.411 910.848,444.475 907.392,451.771C904.064,458.939 899.2,464.699 892.8,469.051C886.528,473.403 878.976,475.579 870.144,475.579L825.408,475.579C816.576,475.579 808.96,473.403 802.56,469.051C796.288,464.699 791.424,458.939 787.968,451.771C784.512,444.475 782.784,436.411 782.784,427.579C782.784,418.747 784.512,410.683 787.968,403.387C791.424,396.091 796.288,390.331 802.56,386.107C808.96,381.755 816.576,379.579 825.408,379.579L870.144,379.579C878.976,379.579 886.528,381.755 892.8,386.107C899.2,390.331 904.064,396.091 907.392,403.387C910.848,410.683 912.576,418.747 912.576,427.579ZM909.095,427.579C909.095,419.292 907.489,411.722 904.246,404.877C904.239,404.861 904.232,404.846 904.225,404.831C901.18,398.155 896.739,392.877 890.882,389.011C890.86,388.997 890.838,388.981 890.815,388.966C885.096,384.998 878.197,383.059 870.144,383.059L825.408,383.059C817.336,383.059 810.365,385.008 804.517,388.985C804.512,388.988 804.508,388.991 804.504,388.993C798.743,392.873 794.287,398.175 791.113,404.877C787.87,411.722 786.264,419.292 786.264,427.579C786.264,435.861 787.868,443.427 791.108,450.27C794.29,456.866 798.759,462.174 804.54,466.189C810.384,470.155 817.347,472.098 825.408,472.098L870.144,472.098C878.197,472.098 885.096,470.16 890.815,466.191C890.824,466.185 890.833,466.179 890.843,466.173C896.718,462.177 901.18,456.886 904.235,450.305C904.239,450.297 904.242,450.289 904.246,450.281C907.489,443.435 909.095,435.866 909.095,427.579Z" style="fill:white;"/>
            <path d="M975.552,494.779L956.352,494.779L956.352,360.379L965.952,360.379C975.296,360.379 985.408,362.171 996.288,365.755C1007.3,369.339 1018.3,374.395 1029.31,380.923C1040.32,387.451 1050.69,395.259 1060.42,404.347C1070.27,413.307 1078.72,423.291 1085.76,434.299L1085.76,360.379L1104.96,360.379L1104.96,494.779L1085.76,494.779C1085.76,483.003 1083.33,471.739 1078.46,460.987C1073.73,450.107 1067.39,440.123 1059.46,431.035C1051.52,421.819 1042.69,413.691 1032.96,406.651C1023.36,399.483 1013.57,393.659 1003.58,389.179C993.6,384.571 984.256,381.627 975.552,380.347L975.552,494.779Z" style="fill:rgb(31,185,0);fill-rule:nonzero;"/>
            <path d="M975.552,498.259L956.352,498.259C954.429,498.259 952.871,496.701 952.871,494.779L952.871,360.379C952.871,358.457 954.429,356.898 956.352,356.898L965.952,356.898C975.628,356.898 986.103,358.736 997.37,362.447C1008.61,366.107 1019.85,371.265 1031.09,377.929C1042.3,384.579 1052.86,392.531 1062.77,401.787C1070.02,408.376 1076.52,415.507 1082.28,423.178L1082.28,360.379C1082.28,358.457 1083.84,356.898 1085.76,356.898L1104.96,356.898C1106.88,356.898 1108.44,358.457 1108.44,360.379L1108.44,494.779C1108.44,496.701 1106.88,498.259 1104.96,498.259L1085.76,498.259C1083.84,498.259 1082.28,496.701 1082.28,494.779C1082.28,483.503 1079.95,472.717 1075.29,462.421C1075.29,462.406 1075.28,462.391 1075.27,462.376C1070.68,451.823 1064.53,442.139 1056.83,433.324C1056.83,433.318 1056.82,433.312 1056.82,433.306C1049.06,424.297 1040.43,416.352 1030.92,409.47C1030.9,409.46 1030.89,409.45 1030.88,409.439C1021.49,402.431 1011.92,396.734 1002.16,392.354C1002.15,392.349 1002.14,392.344 1002.12,392.339C993.986,388.582 986.29,385.959 979.032,384.488L979.032,494.779C979.032,496.701 977.474,498.259 975.552,498.259ZM975.552,494.779L975.552,380.347C984.256,381.627 993.6,384.571 1003.58,389.179C1013.57,393.659 1023.36,399.483 1032.96,406.651C1042.69,413.691 1051.52,421.819 1059.46,431.035C1067.39,440.123 1073.73,450.107 1078.46,460.987C1083.33,471.739 1085.76,483.003 1085.76,494.779L1104.96,494.779L1104.96,360.379L1085.76,360.379L1085.76,434.299C1078.72,423.291 1070.27,413.307 1060.42,404.347C1050.69,395.259 1040.32,387.451 1029.31,380.923C1018.3,374.395 1007.3,369.339 996.288,365.755C985.408,362.171 975.296,360.379 965.952,360.379L956.352,360.379L956.352,494.779L975.552,494.779Z" style="fill:white;"/>
            <path d="M1277.95,494.779L1191.36,494.779C1182.02,494.779 1173.57,493.051 1166.02,489.595C1158.46,486.139 1151.94,481.339 1146.43,475.195C1141.06,469.051 1136.9,461.947 1133.95,453.883C1131.01,445.691 1129.54,436.923 1129.54,427.579C1129.54,418.363 1131.01,409.723 1133.95,401.659C1136.9,393.467 1141.06,386.299 1146.43,380.155C1151.94,373.883 1158.46,369.019 1166.02,365.563C1173.57,362.107 1182.02,360.379 1191.36,360.379L1277.95,360.379L1277.95,379.579L1191.36,379.579C1182.53,379.579 1174.91,381.755 1168.51,386.107C1162.24,390.331 1157.38,396.091 1153.92,403.387C1150.46,410.683 1148.74,418.747 1148.74,427.579C1148.74,436.411 1150.46,444.475 1153.92,451.771C1157.38,458.939 1162.24,464.699 1168.51,469.051C1174.91,473.403 1182.53,475.579 1191.36,475.579L1258.75,475.579L1258.75,437.179L1177.34,437.179L1177.34,417.979L1277.95,417.979L1277.95,494.779Z" style="fill:rgb(31,185,0);fill-rule:nonzero;"/>
            <path d="M1277.95,498.259L1191.36,498.259C1181.48,498.259 1172.55,496.413 1164.57,492.759C1156.57,489.101 1149.66,484.02 1143.84,477.517C1143.83,477.507 1143.82,477.497 1143.81,477.487C1138.16,471.025 1133.78,463.557 1130.68,455.076C1130.68,455.071 1130.68,455.065 1130.68,455.06C1127.6,446.501 1126.06,437.341 1126.06,427.579C1126.06,417.94 1127.6,408.906 1130.68,400.472C1133.78,391.858 1138.16,384.324 1143.81,377.863L1143.82,377.859C1149.65,371.213 1156.57,366.06 1164.57,362.398C1172.55,358.744 1181.48,356.898 1191.36,356.898L1277.95,356.898C1279.87,356.898 1281.43,358.457 1281.43,360.379L1281.43,379.579C1281.43,381.501 1279.87,383.059 1277.95,383.059L1191.36,383.059C1183.29,383.059 1176.32,385.008 1170.47,388.985C1170.46,388.988 1170.46,388.991 1170.46,388.993C1164.69,392.873 1160.24,398.175 1157.07,404.877C1153.82,411.722 1152.22,419.292 1152.22,427.579C1152.22,435.861 1153.82,443.427 1157.06,450.27C1160.24,456.866 1164.71,462.174 1170.49,466.189C1176.34,470.155 1183.3,472.098 1191.36,472.098C1191.36,472.098 1255.27,472.098 1255.27,472.098C1255.27,472.098 1255.27,440.659 1255.27,440.659L1177.34,440.659C1175.42,440.659 1173.86,439.101 1173.86,437.179L1173.86,417.979C1173.86,416.057 1175.42,414.498 1177.34,414.498L1277.95,414.498C1279.87,414.498 1281.43,416.057 1281.43,417.979L1281.43,494.779C1281.43,496.701 1279.87,498.259 1277.95,498.259ZM1277.95,494.779L1277.95,417.979L1177.34,417.979L1177.34,437.179L1258.75,437.179L1258.75,475.579L1191.36,475.579C1182.53,475.579 1174.91,473.403 1168.51,469.051C1162.24,464.699 1157.38,458.939 1153.92,451.771C1150.46,444.475 1148.74,436.411 1148.74,427.579C1148.74,418.747 1150.46,410.683 1153.92,403.387C1157.38,396.091 1162.24,390.331 1168.51,386.107C1174.91,381.755 1182.53,379.579 1191.36,379.579L1277.95,379.579L1277.95,360.379L1191.36,360.379C1182.02,360.379 1173.57,362.107 1166.02,365.563C1158.46,369.019 1151.94,373.883 1146.43,380.155C1141.06,386.299 1136.9,393.467 1133.95,401.659C1131.01,409.723 1129.54,418.363 1129.54,427.579C1129.54,436.923 1131.01,445.691 1133.95,453.883C1136.9,461.947 1141.06,469.051 1146.43,475.195C1151.94,481.339 1158.46,486.139 1166.02,489.595C1173.57,493.051 1182.02,494.779 1191.36,494.779L1277.95,494.779Z" style="fill:white;"/>
            <path d="M1454.59,456.379C1454.59,463.419 1452.86,469.883 1449.41,475.771C1445.95,481.531 1441.34,486.139 1435.58,489.595C1429.82,493.051 1423.36,494.779 1416.19,494.779L1299.46,494.779L1299.46,475.579L1416.19,475.579C1421.57,475.579 1426.11,473.723 1429.82,470.011C1433.54,466.171 1435.39,461.627 1435.39,456.379C1435.39,451.131 1433.54,446.651 1429.82,442.939C1426.11,439.099 1421.57,437.179 1416.19,437.179L1337.86,437.179C1330.82,437.179 1324.35,435.451 1318.46,431.995C1312.7,428.539 1308.1,423.931 1304.64,418.171C1301.18,412.283 1299.46,405.819 1299.46,398.779C1299.46,391.739 1301.18,385.339 1304.64,379.579C1308.1,373.691 1312.7,369.019 1318.46,365.563C1324.35,362.107 1330.82,360.379 1337.86,360.379L1444.99,360.379L1444.99,379.579L1337.86,379.579C1332.61,379.579 1328.06,381.499 1324.22,385.339C1320.51,389.051 1318.66,393.531 1318.66,398.779C1318.66,404.027 1320.51,408.571 1324.22,412.411C1328.06,416.123 1332.61,417.979 1337.86,417.979L1416.19,417.979C1423.36,417.979 1429.82,419.707 1435.58,423.163C1441.34,426.619 1445.95,431.291 1449.41,437.179C1452.86,442.939 1454.59,449.339 1454.59,456.379Z" style="fill:rgb(31,185,0);fill-rule:nonzero;"/>
            <path d="M1458.07,456.379C1458.07,464.059 1456.18,471.109 1452.41,477.532C1452.4,477.542 1452.4,477.552 1452.39,477.561C1448.64,483.819 1443.63,488.825 1437.37,492.579C1431.08,496.355 1424.02,498.259 1416.19,498.259L1299.46,498.259C1297.53,498.259 1295.98,496.701 1295.98,494.779L1295.98,475.579C1295.98,473.657 1297.53,472.098 1299.46,472.098L1416.19,472.098C1420.59,472.098 1424.31,470.597 1427.35,467.56C1430.39,464.407 1431.91,460.683 1431.91,456.379C1431.91,452.092 1430.39,448.432 1427.36,445.4C1427.35,445.386 1427.34,445.372 1427.32,445.358C1424.29,442.223 1420.58,440.659 1416.19,440.659L1337.86,440.659C1330.17,440.659 1323.12,438.767 1316.7,434.996C1316.69,434.991 1316.68,434.985 1316.67,434.979C1310.42,431.225 1305.41,426.219 1301.65,419.961C1301.65,419.952 1301.64,419.942 1301.64,419.932C1297.87,413.509 1295.98,406.459 1295.98,398.779C1295.98,391.087 1297.87,384.097 1301.65,377.803C1305.4,371.407 1310.41,366.334 1316.67,362.578C1316.68,362.573 1316.69,362.567 1316.7,362.561C1323.12,358.791 1330.17,356.898 1337.86,356.898L1444.99,356.898C1446.91,356.898 1448.47,358.457 1448.47,360.379L1448.47,379.579C1448.47,381.501 1446.91,383.059 1444.99,383.059L1337.86,383.059C1333.55,383.059 1329.83,384.651 1326.68,387.8C1323.65,390.832 1322.14,394.492 1322.14,398.779C1322.14,403.078 1323.66,406.799 1326.7,409.963C1329.85,412.981 1333.56,414.498 1337.86,414.498L1416.19,414.498C1424.02,414.498 1431.08,416.403 1437.37,420.178C1443.63,423.934 1448.64,429.007 1452.4,435.403C1456.17,441.697 1458.07,448.687 1458.07,456.379ZM1454.59,456.379C1454.59,449.339 1452.86,442.939 1449.41,437.179C1445.95,431.291 1441.34,426.619 1435.58,423.163C1429.82,419.707 1423.36,417.979 1416.19,417.979L1337.86,417.979C1332.61,417.979 1328.06,416.123 1324.22,412.411C1320.51,408.571 1318.66,404.027 1318.66,398.779C1318.66,393.531 1320.51,389.051 1324.22,385.339C1328.06,381.499 1332.61,379.579 1337.86,379.579L1444.99,379.579L1444.99,360.379L1337.86,360.379C1330.82,360.379 1324.35,362.107 1318.46,365.563C1312.7,369.019 1308.1,373.691 1304.64,379.579C1301.18,385.339 1299.46,391.739 1299.46,398.779C1299.46,405.819 1301.18,412.283 1304.64,418.171C1308.1,423.931 1312.7,428.539 1318.46,431.995C1324.35,435.451 1330.82,437.179 1337.86,437.179L1416.19,437.179C1421.57,437.179 1426.11,439.099 1429.82,442.939C1433.54,446.651 1435.39,451.131 1435.39,456.379C1435.39,461.627 1433.54,466.171 1429.82,470.011C1426.11,473.723 1421.57,475.579 1416.19,475.579L1299.46,475.579L1299.46,494.779L1416.19,494.779C1423.36,494.779 1429.82,493.051 1435.58,489.595C1441.34,486.139 1445.95,481.531 1449.41,475.771C1452.86,469.883 1454.59,463.419 1454.59,456.379Z" style="fill:white;"/>
        </g>
        <g transform="matrix(1,0,0,1,-475.128,104.421)">
            <path d="M748.8,456.379C748.8,463.419 747.072,469.883 743.616,475.771C740.16,481.531 735.552,486.139 729.792,489.595C724.032,493.051 717.568,494.779 710.4,494.779L593.664,494.779L593.664,475.579L710.4,475.579C715.776,475.579 720.32,473.723 724.032,470.011C727.744,466.171 729.6,461.627 729.6,456.379C729.6,451.131 727.744,446.651 724.032,442.939C720.32,439.099 715.776,437.179 710.4,437.179L632.064,437.179C625.024,437.179 618.56,435.451 612.672,431.995C606.912,428.539 602.304,423.931 598.848,418.171C595.392,412.283 593.664,405.819 593.664,398.779C593.664,391.739 595.392,385.339 598.848,379.579C602.304,373.691 606.912,369.019 612.672,365.563C618.56,362.107 625.024,360.379 632.064,360.379L739.2,360.379L739.2,379.579L632.064,379.579C626.816,379.579 622.272,381.499 618.432,385.339C614.72,389.051 612.864,393.531 612.864,398.779C612.864,404.027 614.72,408.571 618.432,412.411C622.272,416.123 626.816,417.979 632.064,417.979L710.4,417.979C717.568,417.979 724.032,419.707 729.792,423.163C735.552,426.619 740.16,431.291 743.616,437.179C747.072,442.939 748.8,449.339 748.8,456.379Z" style="fill:rgb(31,185,0);fill-rule:nonzero;"/>
            <path d="M752.28,456.379C752.28,464.059 750.387,471.109 746.617,477.532C746.611,477.542 746.606,477.552 746.6,477.561C742.845,483.819 737.84,488.825 731.582,492.579C725.289,496.355 718.231,498.259 710.4,498.259L593.664,498.259C591.741,498.259 590.183,496.701 590.183,494.779L590.183,475.579C590.183,473.657 591.741,472.098 593.664,472.098L710.4,472.098C714.793,472.098 718.513,470.597 721.56,467.56C724.594,464.407 726.119,460.683 726.119,456.379C726.119,452.092 724.603,448.432 721.571,445.4C721.557,445.386 721.543,445.372 721.529,445.358C718.499,442.223 714.788,440.659 710.4,440.659L632.064,440.659C624.383,440.659 617.333,438.767 610.91,434.996C610.9,434.991 610.891,434.985 610.881,434.979C604.624,431.225 599.618,426.219 595.863,419.961C595.857,419.952 595.852,419.942 595.846,419.932C592.076,413.509 590.183,406.459 590.183,398.779C590.183,391.087 592.081,384.097 595.854,377.803C599.612,371.407 604.622,366.334 610.881,362.578C610.891,362.573 610.9,362.567 610.91,362.561C617.333,358.791 624.383,356.898 632.064,356.898L739.2,356.898C741.122,356.898 742.68,358.457 742.68,360.379L742.68,379.579C742.68,381.501 741.122,383.059 739.2,383.059L632.064,383.059C627.76,383.059 624.041,384.651 620.893,387.8C617.86,390.832 616.344,394.492 616.344,398.779C616.344,403.078 617.866,406.799 620.908,409.963C624.055,412.981 627.771,414.498 632.064,414.498L710.4,414.498C718.231,414.498 725.289,416.403 731.582,420.178C737.841,423.934 742.852,429.007 746.609,435.403C750.382,441.697 752.28,448.687 752.28,456.379ZM748.8,456.379C748.8,449.339 747.072,442.939 743.616,437.179C740.16,431.291 735.552,426.619 729.792,423.163C724.032,419.707 717.568,417.979 710.4,417.979L632.064,417.979C626.816,417.979 622.272,416.123 618.432,412.411C614.72,408.571 612.864,404.027 612.864,398.779C612.864,393.531 614.72,389.051 618.432,385.339C622.272,381.499 626.816,379.579 632.064,379.579L739.2,379.579L739.2,360.379L632.064,360.379C625.024,360.379 618.56,362.107 612.672,365.563C606.912,369.019 602.304,373.691 598.848,379.579C595.392,385.339 593.664,391.739 593.664,398.779C593.664,405.819 595.392,412.283 598.848,418.171C602.304,423.931 606.912,428.539 612.672,431.995C618.56,435.451 625.024,437.179 632.064,437.179L710.4,437.179C715.776,437.179 720.32,439.099 724.032,442.939C727.744,446.651 729.6,451.131 729.6,456.379C729.6,461.627 727.744,466.171 724.032,470.011C720.32,473.723 715.776,475.579 710.4,475.579L593.664,475.579L593.664,494.779L710.4,494.779C717.568,494.779 724.032,493.051 729.792,489.595C735.552,486.139 740.16,481.531 743.616,475.771C747.072,469.883 748.8,463.419 748.8,456.379Z" style="fill:white;"/>
            <path d="M931.776,427.579C931.776,436.923 930.304,445.691 927.36,453.883C924.416,461.947 920.192,469.051 914.688,475.195C909.312,481.339 902.848,486.139 895.296,489.595C887.744,493.051 879.36,494.779 870.144,494.779L825.408,494.779C816.064,494.779 807.616,493.051 800.064,489.595C792.512,486.139 785.984,481.339 780.48,475.195C775.104,469.051 770.944,461.947 768,453.883C765.056,445.691 763.584,436.923 763.584,427.579C763.584,418.363 765.056,409.723 768,401.659C770.944,393.467 775.104,386.299 780.48,380.155C785.984,373.883 792.512,369.019 800.064,365.563C807.616,362.107 816.064,360.379 825.408,360.379L870.144,360.379C879.36,360.379 887.744,362.107 895.296,365.563C902.848,369.019 909.312,373.883 914.688,380.155C920.192,386.299 924.416,393.467 927.36,401.659C930.304,409.723 931.776,418.363 931.776,427.579ZM912.576,427.579C912.576,418.747 910.848,410.683 907.392,403.387C904.064,396.091 899.2,390.331 892.8,386.107C886.528,381.755 878.976,379.579 870.144,379.579L825.408,379.579C816.576,379.579 808.96,381.755 802.56,386.107C796.288,390.331 791.424,396.091 787.968,403.387C784.512,410.683 782.784,418.747 782.784,427.579C782.784,436.411 784.512,444.475 787.968,451.771C791.424,458.939 796.288,464.699 802.56,469.051C808.96,473.403 816.576,475.579 825.408,475.579L870.144,475.579C878.976,475.579 886.528,473.403 892.8,469.051C899.2,464.699 904.064,458.939 907.392,451.771C910.848,444.475 912.576,436.411 912.576,427.579Z" style="fill:rgb(31,185,0);fill-rule:nonzero;"/>
            <path d="M935.256,427.579C935.256,437.341 933.711,446.501 930.635,455.06C930.633,455.065 930.631,455.071 930.629,455.076C927.531,463.562 923.083,471.035 917.304,477.49C911.603,484.004 904.751,489.095 896.744,492.759C888.756,496.415 879.891,498.259 870.144,498.259L825.408,498.259C815.528,498.259 806.6,496.413 798.615,492.759C790.622,489.101 783.713,484.02 777.887,477.517C777.878,477.507 777.869,477.497 777.86,477.487C772.207,471.025 767.826,463.557 764.73,455.076C764.728,455.071 764.726,455.065 764.724,455.06C761.648,446.501 760.103,437.341 760.103,427.579C760.103,417.94 761.65,408.906 764.728,400.472C767.825,391.858 772.207,384.324 777.86,377.863L777.864,377.859C783.696,371.213 790.613,366.06 798.615,362.398C806.6,358.744 815.528,356.898 825.408,356.898L870.144,356.898C879.891,356.898 888.756,358.743 896.744,362.398C904.749,366.062 911.603,371.216 917.291,377.845C923.082,384.313 927.533,391.853 930.632,400.473C933.71,408.907 935.256,417.941 935.256,427.579ZM931.776,427.579C931.776,418.363 930.304,409.723 927.36,401.659C924.416,393.467 920.192,386.299 914.688,380.155C909.312,373.883 902.848,369.019 895.296,365.563C887.744,362.107 879.36,360.379 870.144,360.379L825.408,360.379C816.064,360.379 807.616,362.107 800.064,365.563C792.512,369.019 785.984,373.883 780.48,380.155C775.104,386.299 770.944,393.467 768,401.659C765.056,409.723 763.584,418.363 763.584,427.579C763.584,436.923 765.056,445.691 768,453.883C770.944,461.947 775.104,469.051 780.48,475.195C785.984,481.339 792.512,486.139 800.064,489.595C807.616,493.051 816.064,494.779 825.408,494.779L870.144,494.779C879.36,494.779 887.744,493.051 895.296,489.595C902.848,486.139 909.312,481.339 914.688,475.195C920.192,469.051 924.416,461.947 927.36,453.883C930.304,445.691 931.776,436.923 931.776,427.579ZM912.576,427.579C912.576,436.411 910.848,444.475 907.392,451.771C904.064,458.939 899.2,464.699 892.8,469.051C886.528,473.403 878.976,475.579 870.144,475.579L825.408,475.579C816.576,475.579 808.96,473.403 802.56,469.051C796.288,464.699 791.424,458.939 787.968,451.771C784.512,444.475 782.784,436.411 782.784,427.579C782.784,418.747 784.512,410.683 787.968,403.387C791.424,396.091 796.288,390.331 802.56,386.107C808.96,381.755 816.576,379.579 825.408,379.579L870.144,379.579C878.976,379.579 886.528,381.755 892.8,386.107C899.2,390.331 904.064,396.091 907.392,403.387C910.848,410.683 912.576,418.747 912.576,427.579ZM909.095,427.579C909.095,419.292 907.489,411.722 904.246,404.877C904.239,404.861 904.232,404.846 904.225,404.831C901.18,398.155 896.739,392.877 890.882,389.011C890.86,388.997 890.838,388.981 890.815,388.966C885.096,384.998 878.197,383.059 870.144,383.059L825.408,383.059C817.336,383.059 810.365,385.008 804.517,388.985C804.512,388.988 804.508,388.991 804.504,388.993C798.743,392.873 794.287,398.175 791.113,404.877C787.87,411.722 786.264,419.292 786.264,427.579C786.264,435.861 787.868,443.427 791.108,450.27C794.29,456.866 798.759,462.174 804.54,466.189C810.384,470.155 817.347,472.098 825.408,472.098L870.144,472.098C878.197,472.098 885.096,470.16 890.815,466.191C890.824,466.185 890.833,466.179 890.843,466.173C896.718,462.177 901.18,456.886 904.235,450.305C904.239,450.297 904.242,450.289 904.246,450.281C907.489,443.435 909.095,435.866 909.095,427.579Z" style="fill:white;"/>
            <path d="M975.552,494.779L956.352,494.779L956.352,360.379L965.952,360.379C975.296,360.379 985.408,362.171 996.288,365.755C1007.3,369.339 1018.3,374.395 1029.31,380.923C1040.32,387.451 1050.69,395.259 1060.42,404.347C1070.27,413.307 1078.72,423.291 1085.76,434.299L1085.76,360.379L1104.96,360.379L1104.96,494.779L1085.76,494.779C1085.76,483.003 1083.33,471.739 1078.46,460.987C1073.73,450.107 1067.39,440.123 1059.46,431.035C1051.52,421.819 1042.69,413.691 1032.96,406.651C1023.36,399.483 1013.57,393.659 1003.58,389.179C993.6,384.571 984.256,381.627 975.552,380.347L975.552,494.779Z" style="fill:rgb(31,185,0);fill-rule:nonzero;"/>
            <path d="M975.552,498.259L956.352,498.259C954.429,498.259 952.871,496.701 952.871,494.779L952.871,360.379C952.871,358.457 954.429,356.898 956.352,356.898L965.952,356.898C975.628,356.898 986.103,358.736 997.37,362.447C1008.61,366.107 1019.85,371.265 1031.09,377.929C1042.3,384.579 1052.86,392.531 1062.77,401.787C1070.02,408.376 1076.52,415.507 1082.28,423.178L1082.28,360.379C1082.28,358.457 1083.84,356.898 1085.76,356.898L1104.96,356.898C1106.88,356.898 1108.44,358.457 1108.44,360.379L1108.44,494.779C1108.44,496.701 1106.88,498.259 1104.96,498.259L1085.76,498.259C1083.84,498.259 1082.28,496.701 1082.28,494.779C1082.28,483.503 1079.95,472.717 1075.29,462.421C1075.29,462.406 1075.28,462.391 1075.27,462.376C1070.68,451.823 1064.53,442.139 1056.83,433.324C1056.83,433.318 1056.82,433.312 1056.82,433.306C1049.06,424.297 1040.43,416.352 1030.92,409.47C1030.9,409.46 1030.89,409.45 1030.88,409.439C1021.49,402.431 1011.92,396.734 1002.16,392.354C1002.15,392.349 1002.14,392.344 1002.12,392.339C993.986,388.582 986.29,385.959 979.032,384.488L979.032,494.779C979.032,496.701 977.474,498.259 975.552,498.259ZM975.552,494.779L975.552,380.347C984.256,381.627 993.6,384.571 1003.58,389.179C1013.57,393.659 1023.36,399.483 1032.96,406.651C1042.69,413.691 1051.52,421.819 1059.46,431.035C1067.39,440.123 1073.73,450.107 1078.46,460.987C1083.33,471.739 1085.76,483.003 1085.76,494.779L1104.96,494.779L1104.96,360.379L1085.76,360.379L1085.76,434.299C1078.72,423.291 1070.27,413.307 1060.42,404.347C1050.69,395.259 1040.32,387.451 1029.31,380.923C1018.3,374.395 1007.3,369.339 996.288,365.755C985.408,362.171 975.296,360.379 965.952,360.379L956.352,360.379L956.352,494.779L975.552,494.779Z" style="fill:white;"/>
            <path d="M1277.95,494.779L1191.36,494.779C1182.02,494.779 1173.57,493.051 1166.02,489.595C1158.46,486.139 1151.94,481.339 1146.43,475.195C1141.06,469.051 1136.9,461.947 1133.95,453.883C1131.01,445.691 1129.54,436.923 1129.54,427.579C1129.54,418.363 1131.01,409.723 1133.95,401.659C1136.9,393.467 1141.06,386.299 1146.43,380.155C1151.94,373.883 1158.46,369.019 1166.02,365.563C1173.57,362.107 1182.02,360.379 1191.36,360.379L1277.95,360.379L1277.95,379.579L1191.36,379.579C1182.53,379.579 1174.91,381.755 1168.51,386.107C1162.24,390.331 1157.38,396.091 1153.92,403.387C1150.46,410.683 1148.74,418.747 1148.74,427.579C1148.74,436.411 1150.46,444.475 1153.92,451.771C1157.38,458.939 1162.24,464.699 1168.51,469.051C1174.91,473.403 1182.53,475.579 1191.36,475.579L1258.75,475.579L1258.75,437.179L1177.34,437.179L1177.34,417.979L1277.95,417.979L1277.95,494.779Z" style="fill:rgb(31,185,0);fill-rule:nonzero;"/>
            <path d="M1277.95,498.259L1191.36,498.259C1181.48,498.259 1172.55,496.413 1164.57,492.759C1156.57,489.101 1149.66,484.02 1143.84,477.517C1143.83,477.507 1143.82,477.497 1143.81,477.487C1138.16,471.025 1133.78,463.557 1130.68,455.076C1130.68,455.071 1130.68,455.065 1130.68,455.06C1127.6,446.501 1126.06,437.341 1126.06,427.579C1126.06,417.94 1127.6,408.906 1130.68,400.472C1133.78,391.858 1138.16,384.324 1143.81,377.863L1143.82,377.859C1149.65,371.213 1156.57,366.06 1164.57,362.398C1172.55,358.744 1181.48,356.898 1191.36,356.898L1277.95,356.898C1279.87,356.898 1281.43,358.457 1281.43,360.379L1281.43,379.579C1281.43,381.501 1279.87,383.059 1277.95,383.059L1191.36,383.059C1183.29,383.059 1176.32,385.008 1170.47,388.985C1170.46,388.988 1170.46,388.991 1170.46,388.993C1164.69,392.873 1160.24,398.175 1157.07,404.877C1153.82,411.722 1152.22,419.292 1152.22,427.579C1152.22,435.861 1153.82,443.427 1157.06,450.27C1160.24,456.866 1164.71,462.174 1170.49,466.189C1176.34,470.155 1183.3,472.098 1191.36,472.098C1191.36,472.098 1255.27,472.098 1255.27,472.098C1255.27,472.098 1255.27,440.659 1255.27,440.659L1177.34,440.659C1175.42,440.659 1173.86,439.101 1173.86,437.179L1173.86,417.979C1173.86,416.057 1175.42,414.498 1177.34,414.498L1277.95,414.498C1279.87,414.498 1281.43,416.057 1281.43,417.979L1281.43,494.779C1281.43,496.701 1279.87,498.259 1277.95,498.259ZM1277.95,494.779L1277.95,417.979L1177.34,417.979L1177.34,437.179L1258.75,437.179L1258.75,475.579L1191.36,475.579C1182.53,475.579 1174.91,473.403 1168.51,469.051C1162.24,464.699 1157.38,458.939 1153.92,451.771C1150.46,444.475 1148.74,436.411 1148.74,427.579C1148.74,418.747 1150.46,410.683 1153.92,403.387C1157.38,396.091 1162.24,390.331 1168.51,386.107C1174.91,381.755 1182.53,379.579 1191.36,379.579L1277.95,379.579L1277.95,360.379L1191.36,360.379C1182.02,360.379 1173.57,362.107 1166.02,365.563C1158.46,369.019 1151.94,373.883 1146.43,380.155C1141.06,386.299 1136.9,393.467 1133.95,401.659C1131.01,409.723 1129.54,418.363 1129.54,427.579C1129.54,436.923 1131.01,445.691 1133.95,453.883C1136.9,461.947 1141.06,469.051 1146.43,475.195C1151.94,481.339 1158.46,486.139 1166.02,489.595C1173.57,493.051 1182.02,494.779 1191.36,494.779L1277.95,494.779Z" style="fill:white;"/>
            <path d="M1454.59,456.379C1454.59,463.419 1452.86,469.883 1449.41,475.771C1445.95,481.531 1441.34,486.139 1435.58,489.595C1429.82,493.051 1423.36,494.779 1416.19,494.779L1299.46,494.779L1299.46,475.579L1416.19,475.579C1421.57,475.579 1426.11,473.723 1429.82,470.011C1433.54,466.171 1435.39,461.627 1435.39,456.379C1435.39,451.131 1433.54,446.651 1429.82,442.939C1426.11,439.099 1421.57,437.179 1416.19,437.179L1337.86,437.179C1330.82,437.179 1324.35,435.451 1318.46,431.995C1312.7,428.539 1308.1,423.931 1304.64,418.171C1301.18,412.283 1299.46,405.819 1299.46,398.779C1299.46,391.739 1301.18,385.339 1304.64,379.579C1308.1,373.691 1312.7,369.019 1318.46,365.563C1324.35,362.107 1330.82,360.379 1337.86,360.379L1444.99,360.379L1444.99,379.579L1337.86,379.579C1332.61,379.579 1328.06,381.499 1324.22,385.339C1320.51,389.051 1318.66,393.531 1318.66,398.779C1318.66,404.027 1320.51,408.571 1324.22,412.411C1328.06,416.123 1332.61,417.979 1337.86,417.979L1416.19,417.979C1423.36,417.979 1429.82,419.707 1435.58,423.163C1441.34,426.619 1445.95,431.291 1449.41,437.179C1452.86,442.939 1454.59,449.339 1454.59,456.379Z" style="fill:rgb(31,185,0);fill-rule:nonzero;"/>
            <path d="M1458.07,456.379C1458.07,464.059 1456.18,471.109 1452.41,477.532C1452.4,477.542 1452.4,477.552 1452.39,477.561C1448.64,483.819 1443.63,488.825 1437.37,492.579C1431.08,496.355 1424.02,498.259 1416.19,498.259L1299.46,498.259C1297.53,498.259 1295.98,496.701 1295.98,494.779L1295.98,475.579C1295.98,473.657 1297.53,472.098 1299.46,472.098L1416.19,472.098C1420.59,472.098 1424.31,470.597 1427.35,467.56C1430.39,464.407 1431.91,460.683 1431.91,456.379C1431.91,452.092 1430.39,448.432 1427.36,445.4C1427.35,445.386 1427.34,445.372 1427.32,445.358C1424.29,442.223 1420.58,440.659 1416.19,440.659L1337.86,440.659C1330.17,440.659 1323.12,438.767 1316.7,434.996C1316.69,434.991 1316.68,434.985 1316.67,434.979C1310.42,431.225 1305.41,426.219 1301.65,419.961C1301.65,419.952 1301.64,419.942 1301.64,419.932C1297.87,413.509 1295.98,406.459 1295.98,398.779C1295.98,391.087 1297.87,384.097 1301.65,377.803C1305.4,371.407 1310.41,366.334 1316.67,362.578C1316.68,362.573 1316.69,362.567 1316.7,362.561C1323.12,358.791 1330.17,356.898 1337.86,356.898L1444.99,356.898C1446.91,356.898 1448.47,358.457 1448.47,360.379L1448.47,379.579C1448.47,381.501 1446.91,383.059 1444.99,383.059L1337.86,383.059C1333.55,383.059 1329.83,384.651 1326.68,387.8C1323.65,390.832 1322.14,394.492 1322.14,398.779C1322.14,403.078 1323.66,406.799 1326.7,409.963C1329.85,412.981 1333.56,414.498 1337.86,414.498L1416.19,414.498C1424.02,414.498 1431.08,416.403 1437.37,420.178C1443.63,423.934 1448.64,429.007 1452.4,435.403C1456.17,441.697 1458.07,448.687 1458.07,456.379ZM1454.59,456.379C1454.59,449.339 1452.86,442.939 1449.41,437.179C1445.95,431.291 1441.34,426.619 1435.58,423.163C1429.82,419.707 1423.36,417.979 1416.19,417.979L1337.86,417.979C1332.61,417.979 1328.06,416.123 1324.22,412.411C1320.51,408.571 1318.66,404.027 1318.66,398.779C1318.66,393.531 1320.51,389.051 1324.22,385.339C1328.06,381.499 1332.61,379.579 1337.86,379.579L1444.99,379.579L1444.99,360.379L1337.86,360.379C1330.82,360.379 1324.35,362.107 1318.46,365.563C1312.7,369.019 1308.1,373.691 1304.64,379.579C1301.18,385.339 1299.46,391.739 1299.46,398.779C1299.46,405.819 1301.18,412.283 1304.64,418.171C1308.1,423.931 1312.7,428.539 1318.46,431.995C1324.35,435.451 1330.82,437.179 1337.86,437.179L1416.19,437.179C1421.57,437.179 1426.11,439.099 1429.82,442.939C1433.54,446.651 1435.39,451.131 1435.39,456.379C1435.39,461.627 1433.54,466.171 1429.82,470.011C1426.11,473.723 1421.57,475.579 1416.19,475.579L1299.46,475.579L1299.46,494.779L1416.19,494.779C1423.36,494.779 1429.82,493.051 1435.58,489.595C1441.34,486.139 1445.95,481.531 1449.41,475.771C1452.86,469.883 1454.59,463.419 1454.59,456.379Z" style="fill:white;"/>
        </g>
    </g>
</svg>
